**ABCDEFGHIJKLMNOPQRSTUVWXYZabcdefghijklmnopqrstuvwxyz**************************
**PARASOLID !"#$%&'()*+,-./:;<=>?@[\]^_`{|}~0123456789**************************
**PART1;
MC=AMD64;
MC_MODEL=Intel64 Family 6 Model 183 Stepping 1, GenuineIntel;
MC_ID=unknown;
OS=Windows_NT;
OS_RELEASE=unknown;
FRU=Parasolid Version 35.1, build 251, 11- 4-2023;
APPL=SOLIDWORKS 2024-2024078;
SITE=;
USER=unknown;
FORMAT=text;
GUISE=transmit;
KEY=Cantilever_geometry;
FILE=Cantilever_geometry.x_t;
DATE=Mon Oct 21 23:27:59 2024;
**PART2;
SCH=SCH_3501251_35102;
USFLD_SIZE=0;
**PART3;
**END_OF_HEADER*****************************************************************
T51 : TRANSMIT FILE created by modeller version 350125123 SCH_3501251_35102_1300
6231 0 12 36 CCCI7 lattice222 0 CCCI4 mesh1006 0 I8 polyline1008 0 CCCCCCCDI5 ow
ner1040 0 CCCI16 boundary_lattice222 0 CCCI13 boundary_mesh1006 0 I17 boundary_p
olyline1008 0 CCCA16 index_map_offset0 0 1 dA9 index_map82 0 A17 node_id_index_m
ap82 0 A20 schema_embedding_map82 0 A5 child12 0 A14 lowest_node_id0 0 1 dA16 me
sh_offset_data206 0 Z1 188 2 3 0 0 0 0 0 0 0 1e3 1e-8 0 4 0 1 0 1 1 5 0 6 7 8 0
 0 9 10 11 0 0 0 0 0 0 0 81 255 2 2 176 12 1 13 0 0 0 0 14 70 11 CI9 list_type0
 0 1 uI10 notransmit0 0 1 lCCCDCCDI12 finger_index0 0 1 dI12 finger_block1012 0
 CZ3 0 4 T1 0 0 11 20 1 15 15 13 255 5 99 0 1 0 16 0 0 17 0 50 255 6 94 0 16 18
 0 0 +1 -.01 -.1 0 0 1 1 0 0 30 255 7 98 0 10 19 0 0 +1 .01 -.1 -1 0 0 29 255 8
 75 0 20 21 0 0 -.01 -.1 19 9 CCCCCCI5 frame230 0 CA5 owner12 0 Z9 33 0 1 17 0 2
2 0 V0 16 255 10 82 0 ?23 0 24 7 0 0 1 18 255 11 30 0 25 0 26 27 ?1 17 255 25 0
 28 29 30 11 31 32 0 33 +18 26 27 0 30 11 34 35 ?1 29 27 32 0 11 35 36 1 -.01 -.
1 29 35 29 0 26 37 27 1 -.01 .1 29 36 78 0 38 27 39 0 .01 -.1 18 38 69 0 40 41 0
 36 ?1 29 39 77 0 41 36 21 0 .01 .1 18 41 68 0 42 43 38 39 ?1 29 21 76 0 43 39 8
 0 -.01 .1 18 43 67 0 44 20 41 21 ?1 17 44 0 45 46 47 43 48 49 0 50 +18 20 66 0
 51 52 43 8 ?1 17 51 0 53 33 50 20 54 55 0 56 +18 52 21 0 57 34 20 58 ?1 17 57 0
 59 23 60 52 61 62 0 29 -18 34 24 0 61 26 52 37 ?1 29 58 23 0 52 0 37 1 .01 -.1
 29 37 26 0 34 58 35 1 .01 .1 17 61 0 28 30 29 34 57 62 0 60 +15 255 28 4 0 29 6
3 0 17 30 0 28 25 61 26 64 65 0 46 +17 29 0 28 61 25 52 66 67 0 68 +16 62 9 0 ?6
1 65 67 69 0 0 1 17 60 0 59 57 42 34 47 24 0 64 -15 59 87 0 42 70 0 17 42 0 59 6
0 23 41 40 71 0 47 +17 47 0 45 44 64 41 60 24 0 48 +16 24 81 0 ?47 10 72 19 0 0
 1 17 64 0 45 47 46 34 30 65 0 0 -15 45 85 0 44 73 0 17 46 0 45 64 44 26 50 72 0
 31 -16 65 13 0 ?30 32 62 74 0 0 1 16 32 17 0 ?25 75 65 76 0 0 1 30 74 15 0 65 6
9 76 0 +1 -.01 .1 0 -1 0 30 69 11 0 62 77 74 0 +1 .01 .1 0 0 1 30 76 19 0 32 74
 78 0 +1 -.01 .1 0 0 -1 30 78 74 0 79 76 80 0 +0 -.01 -.1 0 1 0 16 79 62 0 ?81 7
1 0 78 0 0 1 30 80 73 0 71 78 82 0 +0 .01 .1 0 0 1 16 71 58 0 ?42 49 79 80 0 0 1
 30 82 72 0 49 80 83 0 +0 -.01 .1 0 -1 0 16 49 54 0 ?44 55 71 82 0 0 1 30 83 71
 0 55 82 84 0 +0 -.01 .1 0 0 -1 16 55 50 0 ?51 67 49 83 0 0 1 30 84 95 0 75 83 8
5 0 +1 -.01 -.1 -1 0 0 16 75 79 0 ?56 72 32 84 0 0 1 30 85 96 0 72 84 19 0 +1 -.
01 .1 -1 0 0 16 72 80 0 ?50 24 75 85 0 0 1 30 19 97 0 24 85 7 0 +1 .01 .1 -1 0 0
 17 50 0 53 51 31 43 46 72 0 54 +15 53 83 0 51 86 0 17 31 0 53 50 33 26 25 32 0
 0 -17 54 0 87 48 88 43 51 55 0 0 -15 87 49 0 88 89 0 17 48 0 87 40 54 41 44 49
 0 0 -17 88 0 87 54 40 20 81 79 0 0 -17 40 0 87 88 48 38 42 71 0 23 -17 81 0 90
 68 56 38 88 79 0 0 +15 90 89 0 81 16 0 17 68 0 90 66 81 52 23 10 0 0 -17 56 0 9
0 81 66 20 33 75 0 88 +17 66 0 90 56 68 11 29 67 0 0 -17 33 0 53 31 51 11 56 75
 0 66 -16 67 5 0 ?29 62 55 77 0 0 1 30 77 7 0 67 0 69 0 +1 -.01 -.1 0 1 0 17 23
 0 59 42 57 38 68 10 0 81 +14 255 16 90 91 ?70 0 90 5 6 -0 0 70 0 22 81 1 91 178
 92 16 93 0 0 94 95 14 70 88 94 ?73 16 59 5 18 -0 0 73 16 22 13 22 34 0 0 0 0 0
 0 9 16 81 1 94 180 92 70 96 0 91 97 98 14 73 86 97 ?86 70 45 5 99 -0 0 86 70 22
 50 18 93 0 70 99 6 0 +1 .01 .1 0 -1 0 0 0 -1 50 99 92 0 73 100 18 0 +1 -.01 .1
 0 0 -1 -1 0 0 50 100 91 0 86 101 99 0 +1 -.01 .1 0 1 0 0 0 1 14 86 84 102 ?63 7
3 53 5 100 -0 0 63 73 22 50 101 70 0 89 103 100 0 +0 0 0 -1 0 0 0 0 1 14 89 48 1
04 ?0 63 87 5 101 +0 0 0 63 22 50 103 3 0 63 0 101 0 +1 0 0 -1 0 0 0 0 1 14 63 1
 105 ?89 86 28 5 103 -0 0 89 86 22 81 1 105 188 92 63 106 0 104 0 107 80 7 CCCCC
DI12 legal_owners0 16 1 lCZ1 92 108 109 9000 1 1 1 1 1 1 1 1 0 FFFFTFTFFFFFFFFF1
 81 3 106 187 110 63 111 105 112 0 113 0 0 81 1 104 186 92 89 112 0 102 105 114
 82 255 1 107 525205608 81 3 112 185 110 89 115 104 116 106 117 0 0 81 1 102 184
 92 86 116 0 97 104 118 82 1 114 530841704 81 3 116 183 110 86 119 102 120 112 1
21 0 0 81 1 97 182 92 73 120 0 94 102 122 82 1 118 531759208 81 3 120 181 110 73
 123 97 96 116 124 0 0 82 1 122 532021352 80 3 110 125 126 9000 0 0 0 0 3 5 0 0
 0 FFFFTFFFFFFFFFFF1 1 1 81 1 123 149 127 73 128 120 129 119 130 81 3 96 179 110
 70 129 94 93 120 131 0 0 82 6 124 0 19709104 31138816 0 0 0 81 1 129 147 127 70
 132 96 133 123 134 81 3 93 177 110 16 133 91 0 96 135 0 0 82 6 131 0 19709104 3
1138816 0 0 0 81 1 133 145 127 16 136 93 0 129 137 82 6 135 0 19709104 31138816
 0 0 0 80 1 127 138 139 8015 0 0 0 0 3 5 0 0 0 FFFFTFFFFFFFFFFF2 81 1 136 144 14
0 16 0 133 0 132 141 83 255 1 137 0 80 1 140 0 142 8001 0 0 0 0 3 5 0 0 0 FFFFTF
TFFFFFFFFF2 81 1 132 146 140 70 0 129 136 128 143 83 3 141 1 .949019607843137 .9
09803921568627 81 1 128 148 140 73 0 123 132 144 145 83 3 143 1 .949019607843137
 .909803921568627 81 1 144 150 140 86 0 119 128 146 147 83 3 145 1 .949019607843
137 .909803921568627 81 1 119 151 127 86 144 116 123 111 148 81 1 146 152 140 63
 0 111 144 149 150 83 3 147 1 .949019607843137 .909803921568627 81 1 111 153 127
 63 146 106 119 115 151 81 1 149 154 140 89 0 115 146 0 152 83 3 150 1 .94901960
7843137 .909803921568627 81 1 115 155 127 89 149 112 111 0 153 83 3 152 1 .94901
9607843137 .909803921568627 83 1 153 0 83 1 151 0 83 1 148 0 79 255 15 142 SDL/T
YSA_COLOUR79 21 139 SDL/TYSA_TRANSLUCENCY83 1 134 0 83 1 130 0 79 18 126 DOWNSTR
EAM_FACE_ID82 6 121 0 19709104 31138816 0 0 0 82 6 117 0 19709104 31138816 0 0 0
 82 6 113 0 19709104 31138816 0 0 0 79 14 109 SWEntUnchanged82 1 98 532283496 82
 1 95 532545640 19 17 100 0 1 0 9 5 0 S0 74 4 CI16 index_map_offset0 0 1 dCCZ20
 15 11 0 0 106 154 155 156 105 157 158 149 115 13 2 0 0 0 0 0 0 0 0 0 81 2 154 1
30 159 1 0 155 0 0 0 160 81 2 155 134 161 1 154 156 0 0 0 162 81 2 156 135 163 1
 155 157 0 0 164 0 81 1 157 142 165 1 156 158 0 0 166 81 2 158 143 167 1 157 13
 0 0 0 0 81 2 13 175 168 1 158 2 0 0 169 0 80 2 168 170 171 8004 0 0 0 0 3 5 0 0
 0 FFTFFFFFFFFFFFFF2 3 83 1 169 8000.000133 79 16 171 SDL/TYSA_DENSITY80 2 167 1
72 173 9000 0 0 0 0 3 5 0 0 0 FFTFFFFFFFFFFFFF9 1 79 16 173 BODY_RECIPE_200180 1
 165 174 175 9000 1 1 1 1 1 1 1 1 0 FFTFFFFFFFFFFFFF1 82 1 166 8012 79 10 175 BO
DY_MATCH80 2 163 176 177 9000 0 0 0 0 3 5 0 0 0 FFTFTTTFFTFFFFFF10 10 98 255 22
 164 69 115 116 114 117 115 105 111 110 101 45 69 115 116 114 117 115 105 111 11
0 101 49 79 23 177 SWIMPLICITBODYNAME_ID_U80 2 161 178 179 9000 0 0 0 0 3 5 0 0
 0 FFTFFFFFFFFFFFFF9 1 82 1 162 36 79 30 179 LAST_BODY_MODIFYING_FEATURE_ID80 2
 159 180 181 9000 0 0 0 0 3 5 0 0 0 FFTFFFFFFFFFFFFF9 1 82 1 160 103 79 19 181 E
NT_TIME_STAMP_200180 2 12 182 183 9000 0 0 0 0 3 5 0 0 0 FFTFFFFFFFFFFFFF9 1 82
 1 14 101 79 12 183 ATOM_ID_20011 0 
